<svg width="96" height="96" viewBox="0 0 96 96" fill="none" xmlns="http://www.w3.org/2000/svg">
<path d="M77.4964 48.3679L77.5087 48.434L77.5381 48.4945L84.7021 63.2703V74.6071L66.6371 84.5826H33.1418L10.2875 80.7329L5.56152 53.03L12.6659 35.2926L25.363 26.7643L25.4009 26.7389L25.4336 26.7069L38.1492 14.2842L59.387 10.4419L70.3478 21.1503L74.2989 31.1865L77.4964 48.3679Z" fill="black" stroke="white"/>
<path d="M63.5599 63.1555L63.5599 49.8426L53.1155 31.048L33.1001 63.1555L63.5599 63.1555Z" fill="black"/>
<path d="M63.5599 49.8426L63.5599 63.1555M63.5599 49.8426L53.1155 31.048M63.5599 49.8426L77.9879 47.4933M53.1155 85.2725L63.5599 63.1555M63.5599 63.1555L83.5992 67.071M63.5599 63.1555L31.4969 63.1555M17.8703 56.1075L15.4656 81.167M17.8703 56.1075L5.84675 54.5413M17.8703 56.1075L9.05304 47.4933M17.8703 56.1075L31.4969 63.1555M31.4969 63.1555L36.3064 85.2725M14.4 36L31.4969 36L53.1155 31.048M53.1155 31.048L53.1155 25.5662M53.1155 31.048L33.1001 63.1555M53.1155 31.048L72.377 27.9156M53.1155 25.5662L22.7038 27.9156M53.1155 25.5662L60.3533 9.90397" stroke="white"/>
</svg>
