<svg width="29" height="29" viewBox="0 0 29 29" fill="none" xmlns="http://www.w3.org/2000/svg">
<path d="M20.9537 6.05597L22.107 8.98566L23.067 14.1439L23.0797 14.2093L23.1089 14.2698L25.2379 18.6595V21.8001L20.0406 24.6702H10.0406L3.40875 23.553L2.04059 15.5247L4.10992 10.3587L7.85602 7.84308L7.8941 7.81769L7.92731 7.78546L11.691 4.10773L17.8248 2.99738L20.9537 6.05597Z" fill="#0056FF" stroke="#FAF8FF"/>
<path d="M19.2004 18.5467L19.2004 14.5251L16.0453 8.84755L9.99901 18.5467L19.2004 18.5467Z" fill="#0056FF"/>
<path d="M19.2004 14.5251L19.2004 18.5467M19.2004 14.5251L16.0453 8.84755M19.2004 14.5251L23.5 13.9684M16 24.9684L19.2004 18.5467M19.2004 18.5467L25.254 19.7295M19.2004 18.5467L9.51472 18.5467M5.39835 16.4176L4.67194 23.9877M5.39835 16.4176L1.76624 15.9445M5.39835 16.4176L2.7348 13.8154M5.39835 16.4176L9.51472 18.5467M9.51472 18.5467L11 24.9684M4.35003 10.3435L9.51472 10.3435L16.0453 8.84755M16.0453 8.84755L16.0453 7.1916M16.0453 8.84755L9.99901 18.5467M16.0453 8.84755L21.8639 7.90129M16.0453 7.1916L7 8.46844M16.0453 7.1916L18 2.96844" stroke="#FAF8FF"/>
</svg>
