<svg width="29" height="29" viewBox="0 0 29 29" fill="none" xmlns="http://www.w3.org/2000/svg">
<g id="&#227;&#131;&#158;&#227;&#130;&#164;&#227;&#131;&#154;&#227;&#131;&#188;&#227;&#130;&#184;&#227;&#130;&#162;&#227;&#130;&#164;&#227;&#130;&#179;&#227;&#131;&#179;">
<path id="Polygon 3" d="M23.0673 14.1434L23.0796 14.2095L23.109 14.2701L25.2381 18.6615V21.8001L20.04 24.6705H10.0408L3.41001 23.5536L2.04059 15.5263L4.11007 10.3594L7.85631 7.84319L7.89425 7.81771L7.92694 7.78577L11.6916 4.10782L17.8248 2.99821L20.9536 6.05498L22.1075 8.98609L23.0673 14.1434Z" fill="black" stroke="white"/>
<g id="Line 2">
<path d="M19.2004 18.5467L19.2004 14.5251L16.0453 8.84755L9.99901 18.5467L19.2004 18.5467Z" fill="black"/>
<path d="M19.2004 14.5251L19.2004 18.5467M19.2004 14.5251L16.0453 8.84755M19.2004 14.5251L23.5 13.9684M16 24.9684L19.2004 18.5467M19.2004 18.5467L25.254 19.7295M19.2004 18.5467L9.51472 18.5467M5.39835 16.4176L4.67194 23.9877M5.39835 16.4176L1.76624 15.9445M5.39835 16.4176L2.7348 13.8154M5.39835 16.4176L9.51472 18.5467M9.51472 18.5467L11 24.9684M4.35003 10.3435L9.51472 10.3435L16.0453 8.84755M16.0453 8.84755L16.0453 7.1916M16.0453 8.84755L9.99901 18.5467M16.0453 8.84755L21.8639 7.90129M16.0453 7.1916L7 8.46844M16.0453 7.1916L18 2.96844" stroke="white"/>
</g>
</g>
</svg>
